<?xml version="1.0" standalone="no"?><!DOCTYPE svg PUBLIC "-//W3C//DTD SVG 1.1//EN" "http://www.w3.org/Graphics/SVG/1.1/DTD/svg11.dtd"><svg t="1748596971145" class="icon" viewBox="0 0 1024 1024" version="1.1" xmlns="http://www.w3.org/2000/svg" p-id="5049" xmlns:xlink="http://www.w3.org/1999/xlink" width="200" height="200"><path d="M633.088 122.514286s23.113143-25.965714 58.368-3.949715l161.426286 78.665143s24.685714 8.411429 24.685714 32.768v553.984s3.328 20.370286-20.48 36.790857l-186.258286 92.781715s-16.822857 4.681143-30.72-9.654857l-1.243428-1.389715-558.08-512.219428-0.731429-0.585143c-3.291429-2.852571-16.091429-15.945143 4.644572-32.768l54.820571-49.517714s15.652571-16.676571 32.219429-2.157715l143.396571 109.750857 317.952-292.461714c1.609143-1.024 3.181714-1.865143 4.717714-2.596571l4.169143-1.718857c-5.302857 1.682286-8.886857 4.315429-8.886857 4.315428zM211.126857 509.915429l103.936 95.414857-138.166857 105.874285c-18.578286 15.542857-31.890286 5.522286-34.925714 2.779429l-0.658286-0.621714-60.525714-55.625143c-13.385143-17.993143 0-28.086857 0-28.086857l130.340571-119.734857zM677.302857 327.533714l-237.238857 183.113143 237.238857 181.540572V327.533714z" fill="#FFFFFF" p-id="5050"></path></svg>